Coordinates
version=1
nRows=26
nColumns=24
inDegrees=yes

Units are S.I. units (second, meters, Newtons, ...)
Angles are in degrees.

endheader
time	pelvis_tilt	pelvis_list	pelvis_rotation	pelvis_tx	pelvis_ty	pelvis_tz	hip_flexion_r	hip_adduction_r	hip_rotation_r	knee_angle_r	ankle_angle_r	subtalar_angle_r	mtp_angle_r	hip_flexion_l	hip_adduction_l	hip_rotation_l	knee_angle_l	ankle_angle_l	subtalar_angle_l	mtp_angle_l	lumbar_extension	lumbar_bending	lumbar_rotation
      5.31000000	      2.51009867	     -0.56485393	     -6.16916957	     -1.00018723	      0.95571675	      0.20715331	     -4.85429526	      3.56777522	      4.29171772	    -10.67896972	     16.84145769	     -5.92929917	      0.00000000	     27.49978658	     -3.70306477	    -10.68575359	    -49.37813885	      4.10248948	    -16.30268388	      0.00000000	    -27.42334720	     -1.16679730	      2.32306400
      5.32000000	      2.46241936	     -0.80680991	     -6.46108918	     -0.98732068	      0.95484860	      0.20702578	     -6.25599538	      3.65058164	      4.28132571	     -9.52023132	     16.77303709	     -5.91468051	      0.00000000	     27.62371395	     -3.98027276	    -10.75610455	    -45.74277616	      5.19977234	    -14.25385700	      0.00000000	    -27.54774271	     -1.05126946	      2.72158775
      5.33000000	      2.45499725	     -1.10972718	     -6.73814766	     -0.97425239	      0.95373550	      0.20689046	     -7.73777558	      3.78779404	      4.14845930	     -8.33480535	     16.74780490	     -5.81581792	      0.00000000	     27.56284590	     -4.28233439	    -10.73425173	    -41.89024275	      6.16119563	    -12.10992590	      0.00000000	    -27.69668260	     -0.87927989	      3.13836128
      5.34000000	      2.35700194	     -1.51825908	     -7.01664985	     -0.96117071	      0.95222192	      0.20662196	     -9.08449906	      4.03412154	      3.93799566	     -7.26909167	     16.75649278	     -5.57512018	      0.00000000	     27.47224701	     -4.63912706	    -10.45346726	    -37.85784739	      7.02479716	     -9.89671721	      0.00000000	    -27.77072153	     -0.56573426	      3.62915344
      5.35000000	      2.53513935	     -1.87873408	     -7.32183393	     -0.94777449	      0.95093051	      0.20644793	    -10.77172169	      4.18270192	      3.69181547	     -6.14469108	     16.66397749	     -5.35659465	      0.00000000	     26.89815708	     -4.91890234	    -10.17697514	    -33.58370547	      7.57664501	     -7.87213752	      0.00000000	    -28.12832416	     -0.37918738	      4.10590571
      5.36000000	      2.59540002	     -2.33662297	     -7.62436192	     -0.93431698	      0.94919818	      0.20623503	    -12.28915227	      4.43731116	      3.44337286	     -5.16106030	     16.61290429	     -5.02695470	      0.00000000	     26.36878115	     -5.29802290	     -9.68321448	    -29.28433300	      7.93033038	     -6.09189673	      0.00000000	    -28.36175503	     -0.07573141	      4.64747473
      5.37000000	      2.65180034	     -2.82386913	     -7.93523747	     -0.92068527	      0.94725357	      0.20605001	    -13.77148309	      4.70736191	      3.22742981	     -4.28327598	     16.54874025	     -4.66685746	      0.00000000	     25.76258969	     -5.72880515	     -9.10939524	    -25.01122389	      8.01629729	     -4.74578886	      0.00000000	    -28.56897735	      0.24118014	      5.21860776
      5.38000000	      2.72168019	     -3.35330606	     -8.24563562	     -0.90691998	      0.94513187	      0.20584526	    -15.22015168	      4.99733842	      3.07625242	     -3.54390570	     16.47710893	     -4.27840008	      0.00000000	     25.10301821	     -6.22504975	     -8.50853429	    -20.88381381	      7.86978778	     -4.03208008	      0.00000000	    -28.78284807	      0.59307155	      5.81633492
      5.39000000	      2.72472661	     -3.84141099	     -8.55985174	     -0.89297879	      0.94278734	      0.20562493	    -16.52357097	      5.22585659	      3.04158155	     -2.97515312	     16.44054118	     -3.88006415	      0.00000000	     24.51228320	     -6.71748250	     -7.96358715	    -17.01561879	      7.45304479	     -4.00108884	      0.00000000	    -28.88563915	      0.89507785	      6.40197116
      5.40000000	      2.72666500	     -4.34269074	     -8.82987475	     -0.87890445	      0.94032179	      0.20531531	    -17.75144702	      5.44858429	      3.06546814	     -2.58301974	     16.41846840	     -3.41829589	      0.00000000	     23.98556961	     -7.24261816	     -7.64657589	    -13.58987661	      7.00666871	     -4.41061299	      0.00000000	    -28.97523661	      1.22670723	      6.96329402
      5.41000000	      2.77995119	     -4.77224636	     -9.05032859	     -0.86467945	      0.93787895	      0.20493302	    -18.91580652	      5.58389324	      3.01764749	     -2.41003166	     16.43700053	     -2.92635487	      0.00000000	     23.46941579	     -7.68216865	     -7.56568786	    -10.66327116	      6.58375022	     -5.13708363	      0.00000000	    -29.09941739	      1.46775174	      7.43521277
      5.42000000	      2.87067213	     -5.14382665	     -9.15455487	     -0.85032539	      0.93548664	      0.20425559	    -20.01206683	      5.65313964	      2.91324430	     -2.43756250	     16.47332335	     -2.31454553	      0.00000000	     23.04591163	     -7.99842377	     -7.75062154	     -8.37276501	      6.22577066	     -6.02173529	      0.00000000	    -29.24923200	      1.70144469	      7.78273370
      5.43000000	      2.93063435	     -5.40301053	     -9.21734145	     -0.83577803	      0.93310170	      0.20336128	    -20.94074300	      5.60122966	      2.76224687	     -2.69589283	     16.55457617	     -1.65101686	      0.00000000	     22.78030556	     -8.15588889	     -8.14850054	     -6.77322664	      6.01774868	     -6.98491939	      0.00000000	    -29.32077229	      1.84957014	      8.02355466
      5.44000000	      3.07341021	     -5.54220475	     -9.15643419	     -0.82107292	      0.93092287	      0.20212203	    -21.82546614	      5.42851269	      2.45331517	     -3.16712061	     16.63384647	     -0.86126317	      0.00000000	     22.56873354	     -8.10175564	     -8.55256181	     -5.88829749	      5.86182108	     -7.92519124	      0.00000000	    -29.46119646	      1.91921207	      8.10976355
      5.45000000	      3.20445363	     -5.57036271	     -9.07192075	     -0.80621441	      0.92887070	      0.20067440	    -22.56261795	      5.13635689	      2.12998092	     -3.85813390	     16.67237554	     -0.07264953	      0.00000000	     22.49648019	     -7.90184463	     -8.93915897	     -5.73157569	      5.72379210	     -8.86677757	      0.00000000	    -29.55190433	      1.89834705	      8.17764301
      5.46000000	      3.43837479	     -5.37499056	     -8.79000592	     -0.79105164	      0.92702790	      0.19884539	    -23.30295586	      4.66107971	      1.51609483	     -4.69733283	     16.67794581	      0.79823255	      0.00000000	     22.47840796	     -7.37250275	     -9.07151178	     -6.27853201	      5.42154681	     -9.90494087	      0.00000000	    -29.69308590	      1.69913713	      7.92164433
      5.47000000	      3.70964947	     -5.10051781	     -8.47982256	     -0.77578446	      0.92541704	      0.19681281	    -23.96008406	      4.10012478	      0.88535945	     -5.74882918	     16.55913400	      1.67359437	      0.00000000	     22.52587410	     -6.73726936	     -8.93429147	     -7.43406911	      4.89256257	    -11.12845280	      0.00000000	    -29.86578060	      1.44024255	      7.61266185
      5.48000000	      4.03706860	     -4.73040891	     -8.10095609	     -0.76043941	      0.92404879	      0.19458840	    -24.55396378	      3.45912061	      0.17822750	     -7.01233821	     16.32364990	      2.54328861	      0.00000000	     22.62930343	     -5.96809246	     -8.47129924	     -9.11752787	      4.04867653	    -12.56297023	      0.00000000	    -30.10317002	      1.10054382	      7.19927970
      5.49000000	      4.34137917	     -4.21917884	     -7.66690293	     -0.74485269	      0.92285148	      0.19220683	    -25.03125039	      2.70389115	     -0.55073289	     -8.43835506	     15.88208879	      3.33442981	      0.00000000	     22.84685725	     -5.02950570	     -7.81357980	    -11.19696266	      2.89313765	    -14.14950278	      0.00000000	    -30.26313494	      0.64279038	      6.69554401
      5.50000000	      4.65628731	     -3.62938426	     -7.18036179	     -0.72914110	      0.92188239	      0.18971435	    -25.40563505	      1.89608916	     -1.33304515	    -10.07874801	     15.21695332	      4.07172746	      0.00000000	     23.11394938	     -3.98436948	     -6.96831634	    -13.54155479	      1.54446329	    -15.77908879	      0.00000000	    -30.42544128	      0.11843240	      6.11730454
      5.51000000	      4.98477275	     -2.98076593	     -6.65691751	     -0.71328135	      0.92116635	      0.18716338	    -25.67620828	      1.04998028	     -2.15722810	    -11.94671704	     14.27324095	      4.74739689	      0.00000000	     23.37765998	     -2.86167678	     -6.05380478	    -16.01005363	      0.19978096	    -17.27714182	      0.00000000	    -30.58956538	     -0.46231270	      5.50778097
      5.52000000	      5.31179221	     -2.28560781	     -6.12740179	     -0.69725385	      0.92070547	      0.18465505	    -25.81039552	      0.17095279	     -2.96411492	    -14.06827154	     12.97847556	      5.30224615	      0.00000000	     23.58612369	     -1.69647333	     -5.16871062	    -18.46114282	     -0.89896578	    -18.45679640	      0.00000000	    -30.73201252	     -1.10647376	      4.88396241
      5.53000000	      5.65066509	     -1.58587686	     -5.65061927	     -0.68104833	      0.92057991	      0.18218707	    -25.79132120	     -0.74743813	     -3.81852211	    -16.46444276	     11.22888328	      5.80409259	      0.00000000	     23.65163779	     -0.55611763	     -4.49569156	    -20.76055072	     -1.55945691	    -19.27735440	      0.00000000	    -30.86694625	     -1.75830334	      4.30950833
      5.54000000	      6.03655770	     -0.90579274	     -5.24504462	     -0.66493545	      0.92079920	      0.17985484	    -25.59246495	     -1.69379609	     -4.61701475	    -19.21430140	      9.11097304	      6.25385194	      0.00000000	     23.50566913	      0.52180820	     -4.02511812	    -22.82751225	     -1.71819128	    -19.78189452	      0.00000000	    -31.08982397	     -2.45574948	      3.87325077
      5.55000000	      6.41090448	     -0.22874980	     -4.97148302	     -0.64882263	      0.92130198	      0.17764639	    -25.13967852	     -2.71261148	     -5.31061900	    -22.27013818	      6.50144106	      6.49020809	      0.00000000	     23.16259718	      1.53177084	     -3.83412413	    -24.59582280	     -1.28611295	    -20.02167551	      0.00000000	    -31.28608552	     -3.17194764	      3.54512876
      5.56000000	      6.64489994	      0.46479697	     -4.81817990	     -0.63284229	      0.92191972	      0.17564899	    -24.26647045	     -3.78533980	     -5.75517638	    -25.63032305	      3.42945104	      6.42900669	      0.00000000	     22.76862733	      2.48260914	     -3.88300268	    -26.04615659	     -0.44022742	    -20.07855962	      0.00000000	    -31.32186244	     -3.95545723	      3.30323559
